<?xml version="1.0" encoding="utf-8"?>
<!-- Generator: Adobe Illustrator 25.3.1, SVG Export Plug-In . SVG Version: 6.00 Build 0)  -->
<svg version="1.1" id="Layer_1" xmlns="http://www.w3.org/2000/svg" xmlns:xlink="http://www.w3.org/1999/xlink" x="0px" y="0px"
	 viewBox="0 0 336 336" style="enable-background:new 0 0 336 336;" xml:space="preserve">
<rect y="0" width="336" height="336"/>
<g transform="translate(0.000000,336.000000) scale(0.100000,-0.100000)">
	<path d="M0,1680V0h1680h1680v1680v1680H1680H0V1680z M700,3080v-140h70h70v-70v-70h70h70v-70v-70h70h70v70v70h560h560v-70v-70h70
		h70v70v70h70h70v70v70h70h70v140v140h70h70v-70v-70h70h70v-70v-70h70h70v-70v-70h-210h-210v-70v-70h-140h-140v-140v-140h70h70v-350
		v-350h-70h-70v-140v-140h-140h-140v-210V980h70h70v-70v-70h-70h-70v-70v-70h-70h-70v-70v-70h-280h-280v70v70h-70h-70v70v70h-70h-70
		v70v70h140h140v70v70h-70h-70v140v140h-140H980v140v140h-70h-70v350v350h70h70v140v140H840H700v70v70H490H280v70v70h70h70v70v70h70
		h70v70v70h70h70V3080z M1120,1190v-70h-70h-70V980V840h-70h-70v-70v-70h-70h-70V560V420h-70h-70v70v70h-70h-70v70v70h-70h-70v70v70
		h140h140v70v70h70h70v70v70h70h70v70v70h140h140V1190z M2520,1190v-70h70h70v-70v-70h70h70v-70v-70h140h140v-70v-70h-70h-70v-70
		v-70h-70h-70v-70v-70h-70h-70v140v140h-70h-70v70v70h-70h-70v140v140h-70h-70v70v70h140h140V1190z"/>
	<path d="M1120,1960v-280h210h210v210v210h-70h-70v70v70h-140h-140V1960z"/>
	<path d="M1960,2170v-70h-70h-70v-210v-210h210h210v280v280h-140h-140V2170z"/>
	<path d="M1540,1400v-140h140h140v70v70h-70h-70v70v70h-70h-70V1400z"/>
	<path d="M1540,1050v-70h-70h-70v-70v-70h70h70v70v70h70h70v-70v-70h70h70v70v70h70h70v-70v-70h70h70v70v70h-70h-70v70v70h-70h-70
		v-70v-70h-70h-70v70v70h-70h-70V1050z"/>
</g>
<image style="overflow:visible;" width="512" height="512" xlink:href="hiceturco-icon.png"  transform="matrix(0.6133 0 0 0.6133 11 14)">
</image>
</svg>
